<svg id="Layer_1" data-name="Layer 1" xmlns="http://www.w3.org/2000/svg" xmlns:xlink="http://www.w3.org/1999/xlink" viewBox="0 0 514.54 408.36"><defs><style>.cls-1{fill:#00d1a9;}.cls-2{fill:#04c29e;}.cls-3{fill:url(#linear-gradient);}.cls-4{fill:#4d4d4d;}.cls-5{fill:#ffc8b3;}.cls-6{fill:#03c9a4;}.cls-7{fill:#11222d;}.cls-8{fill:#ddd;}.cls-9{fill:#08b594;}.cls-10{fill:#08cea8;}.cls-11{fill:#eaeaea;}.cls-12{fill:#19ccae;}.cls-13{fill:#85bce1;}.cls-14{fill:#006cb5;}.cls-15{fill:#fea4a4;}.cls-16{fill:#028eff;}.cls-17{fill:#97d5ff;}.cls-18{fill:#fff;}.cls-19{fill:#04c19d;}.cls-20{fill:#656565;}.cls-21{fill:#636363;}.cls-22{fill:#e4e8ea;}.cls-23{fill:#d3d3d3;}</style><linearGradient id="linear-gradient" x1="1039.33" y1="1124.8" x2="1039.33" y2="1123.8" gradientTransform="matrix(-4.24, 0, 0, 115.85, 4807.62, -129954.35)" gradientUnits="userSpaceOnUse"><stop offset="0" stop-color="#38e8c7"/><stop offset="0.05" stop-color="#38dcbe"/><stop offset="0.27" stop-color="#3caf9d"/><stop offset="0.48" stop-color="#3e8c84"/><stop offset="0.68" stop-color="#407371"/><stop offset="0.85" stop-color="#416466"/><stop offset="1" stop-color="#268f7a"/></linearGradient></defs><g id="Group_652" data-name="Group 652"><g id="Group_243" data-name="Group 243"><g id="Group_233" data-name="Group 233"><g id="Group_78" data-name="Group 78"><g id="Group_69" data-name="Group 69"><path id="Path_40" data-name="Path 40" class="cls-1" d="M389.32,270.77c.19-1.41,1.13.72,1.55.74s1.68-5.89,2.12-5.95,1.53.84,1.72-.27.8-3.5,1.1-3.54.4.35.93.13c.89-.36,7.83-12.8,7.83-12.8s-13.5,4.55-14,5.36c-.31.49,0,.66-.05.94s-2.54.44-3.68.43-.43,1.23-.58,1.65-6.19.56-6.24,1,1.87,1.74.45,1.67-5.82,1.31-5.73,1.6,1.79.7,1.2,1-.25.21-.25.21-5.3,1.61-5.36,2.1,1.36,1.15.31,1.33a15.79,15.79,0,0,0-4.75,2.87c-.21.43.61.57.4,1.5s-4.24,3.22-4.37,3.64,2.11.66.68,1.54-4,3.48-3.9,3.87,1,.44.78.95-3.47,2.49-4.1,3.41.89.91.59,1.47-2.83,2.38-4.15,3.77c-1,1.06.62.46.81,1.07s-4.23,4.89-4.65,5.68c.86-.26,5.52-3.71,6.08-3.42s-.49,2,.64,1a40.32,40.32,0,0,1,5.08-3.52c.61-.19.34,1.31,1.35.85s3.57-3.28,4.1-3.41.42.74.78.94,3.4-1.87,4.53-3.12,1,1,1.39.95,3.42-3.61,4.37-3.64.95.8,1.41.67a15.65,15.65,0,0,0,3.68-4.14c.37-1,.76.51,1.26.54s3.05-4.88,3.05-4.88-.15.32.25-.21.49,1.23.75,1.37S389.13,272.17,389.32,270.77Z"/></g><g id="Group_77" data-name="Group 77"><path id="Path_702" data-name="Path 702" class="cls-2" d="M389.32,270.77c.19-1.41,1.13.72,1.55.74s1.68-5.89,2.12-5.95,1.53.84,1.72-.27.8-3.5,1.1-3.54.4.35.93.13c.89-.36,7.83-12.8,7.83-12.8l-56.6,47c.86-.26,5.52-3.71,6.09-3.42s-.5,2,.63,1a39.72,39.72,0,0,1,5.09-3.52c.61-.19.33,1.32,1.34.85s3.57-3.28,4.1-3.41.42.74.78.94,3.4-1.87,4.53-3.12,1,1,1.39.95,3.42-3.61,4.38-3.64.94.8,1.4.67a15.48,15.48,0,0,0,3.68-4.14c.37-1,.77.51,1.26.55s3.05-4.88,3.05-4.88-.14.31.25-.21.49,1.22.75,1.36S389.13,272.17,389.32,270.77Z"/></g></g><g id="Group_95" data-name="Group 95"><g id="Group_86" data-name="Group 86"><path id="Path_1364" data-name="Path 1364" class="cls-2" d="M420.24,270.77c-.18-1.41-1.12.72-1.55.74s-1.68-5.89-2.11-5.95-1.53.84-1.73-.27-.8-3.5-1.09-3.54-.4.35-.93.13c-.9-.36-7.84-12.8-7.84-12.8s13.5,4.55,14,5.36c.31.49,0,.66,0,.94s2.55.44,3.68.43.44,1.23.58,1.65,6.19.56,6.24,1-1.86,1.74-.45,1.67,5.82,1.31,5.74,1.6-1.79.7-1.2,1,.25.21.25.21,5.3,1.61,5.36,2.1-1.37,1.15-.31,1.33a15.62,15.62,0,0,1,4.74,2.87c.22.43-.6.57-.4,1.5s4.25,3.22,4.38,3.64-2.12.66-.68,1.54,4,3.48,3.9,3.87-1,.44-.78.95,3.46,2.49,4.1,3.41-.89.91-.6,1.47,2.83,2.38,4.16,3.77c1,1.06-.63.46-.82,1.07s4.23,4.89,4.65,5.68c-.86-.26-5.51-3.71-6.08-3.42s.49,2-.64,1a40.32,40.32,0,0,0-5.08-3.52c-.61-.19-.33,1.31-1.35.85s-3.57-3.28-4.1-3.41-.41.74-.78.94-3.4-1.87-4.52-3.12-1,1-1.4.95-3.42-3.61-4.37-3.64-.94.8-1.41.67a15.65,15.65,0,0,1-3.68-4.14c-.37-1-.76.51-1.26.54s-3-4.88-3-4.88l-.26-.21s-.49,1.23-.75,1.37S420.43,272.17,420.24,270.77Z"/></g><g id="Group_94" data-name="Group 94"><path id="Path_2026" data-name="Path 2026" class="cls-1" d="M420.24,270.77c-.18-1.41-1.12.72-1.55.74s-1.68-5.89-2.11-5.95-1.53.84-1.73-.27-.8-3.5-1.09-3.54-.4.35-.93.13c-.9-.36-7.84-12.8-7.84-12.8l56.6,47c-.86-.26-5.52-3.71-6.08-3.42s.49,2-.64,1a40.32,40.32,0,0,0-5.08-3.52c-.61-.19-.33,1.32-1.35.85s-3.57-3.28-4.1-3.41-.41.74-.78.94-3.4-1.87-4.53-3.12-.94,1-1.39.95-3.42-3.61-4.37-3.64-.95.8-1.41.67a15.65,15.65,0,0,1-3.68-4.14c-.37-1-.76.51-1.26.55s-3.05-4.88-3.05-4.88.15.31-.25-.21-.49,1.22-.75,1.36S420.43,272.17,420.24,270.77Z"/></g></g><g id="Group_232" data-name="Group 232"><rect id="Rectangle_23" data-name="Rectangle 23" class="cls-3" x="402.9" y="242.35" width="4.24" height="115.85"/><g id="Group_130" data-name="Group 130"><g id="Group_113" data-name="Group 113"><path id="Path_2688" data-name="Path 2688" class="cls-1" d="M381.24,163c3.27,3.54-4.32,1.38-5.31,2.44s11.74,17.16,11,18.43-5.54,2.17-3,5.09,7.41,9.7,6.87,10.53-1.78.3-2.37,2.16c-1,3.12,16.43,48.24,16.43,48.24s17.42-45.12,16.42-48.24c-.6-1.86-1.8-1.33-2.35-2.16s4.37-7.59,6.86-10.53-2.26-3.81-3-5.09,12-17.38,11-18.43-8.57,1.1-5.32-2.44,9.2-18,8.26-18.45-5.7,3.16-5.2,1,0-1.11,0-1.11,7.3-17.33,6.14-18.55-6,1-4.16-2.1,3.5-17.11,2.83-18.6-2.83.33-4.8-2.22.81-18,0-19.31-6.33,4.08-5.5-1.57-.33-18.11-1.66-18.6-3.32,1.66-4.16,0,1-14.46,0-18.12-4.32.34-5.14-1.66-.09-12.54-.84-19c-.57-5-2.55.64-4.54-.19S405.94,2.83,404.78,0c-1.17,2.83-2.27,22.48-4.27,23.32s-4-5.54-4-.56-1,18.94-1.83,20.93-4.15-2-5.14,1.66.82,16.45,0,18.12-2.82-.51-4.15,0-2.5,13-1.66,18.6-4.68.3-5.5,1.57,2,16.76,0,19.31-4.15.72-4.8,2.22,1,15.44,2.82,18.6-3,.89-4.15,2.1,6.13,18.55,6.13,18.55-.51-1,0,1.11-4.26-1.38-5.2-1S378,159.43,381.24,163Z"/></g><g id="Group_129" data-name="Group 129"><path id="Path_4670" data-name="Path 4670" class="cls-2" d="M381.24,163c3.27,3.54-4.32,1.38-5.31,2.44s11.74,17.16,11,18.43-5.54,2.17-3,5.09,7.41,9.7,6.87,10.53-1.78.3-2.37,2.16c-1,3.12,16.43,48.24,16.43,48.24V0c-1.16,2.83-2.27,22.48-4.27,23.31s-4-5.53-4-.55-1,18.94-1.82,20.93-4.16-2-5.15,1.66.83,16.44,0,18.12-2.82-.51-4.15,0-2.5,12.94-1.66,18.6-4.68.3-5.5,1.57,2,16.76,0,19.31-4.14.72-4.8,2.21,1,15.45,2.82,18.6-3,.89-4.15,2.1,6.13,18.55,6.13,18.55-.51-1,0,1.12-4.26-1.38-5.2-1S378,159.43,381.24,163Z"/></g></g><g id="Group_160" data-name="Group 160"><g id="Group_145" data-name="Group 145"><path id="Path_6388" data-name="Path 6388" class="cls-1" d="M303.6,84.34c1.24,4.15,4.39,15.88,4.39,17.73s-3.72-.53-3.39,2.75,5.68,13.3,5.63,14.87-2.26.43-3.08,1.23,2.47,11.39,5.14,15.68-3.3,1.76-3.44,3.06,7.64,13,7.27,15.63-2.7,2-2.57,3.47,7,12.07,9.64,13.83-1.72,1.82-2,3.24,11.15,11.1,12.34,12c-.17-.1-.35-.14.63.93,1.33,1.46-3.57.66-4,1.33s10.3,9.45,14.22,10.64-2.24,2.9-2.4,4.12,16.24,7.62,16.37,8.78-2.54,4.09.6,5.08,9.78,3.47,9.87,4.31-1,1-.4,2.65c.69,2.84,27.94,19.55,35,23.4a6,6,0,0,0,1.66.77c-.62,0-14.07-38.19-15.61-39.81-1.3-1-1.82,0-2.58-.33s-.91-7.16-.66-10.28-3.29-1.53-4.41-2.05-.06-17.17-1.09-17.41-5.28,4.46-4.65.61-1.44-16.31-2.19-16.19-2.62,4.51-3.17,2.8-.45-.79-.45-.79-1.92-15.05-3.11-15.46-3.8,3-3.72.08-3.9-13.53-4.87-14.39-1.91,1.24-4.24.07-5.67-13.57-6.62-14.24-3.25,5.11-4.52.59-6-13.6-7.15-13.62-2,2.27-3.08,1.23-3.6-11.48-5.33-14.09-3.16,1.43-4.33.08-3.54-9.92-5.73-15c-1.68-3.85-1.78,1.11-3.5.92s-8.06-16.85-9.48-19c-.38,2.61,3.51,19.09,2.31,20.24S302.32,80.2,303.6,84.34Z"/></g><g id="Group_159" data-name="Group 159"><path id="Path_7974" data-name="Path 7974" class="cls-2" d="M303.6,84.34c1.24,4.15,4.39,15.88,4.39,17.73s-3.72-.53-3.39,2.75,5.68,13.3,5.63,14.87-2.26.43-3.08,1.23,2.47,11.39,5.14,15.68-3.3,1.76-3.44,3.06,7.64,13,7.27,15.63-2.7,2-2.57,3.47,7,12.07,9.64,13.83-1.72,1.82-2,3.24,11.15,11.1,12.34,12c-.17-.1-.35-.14.63.93,1.33,1.46-3.57.66-4,1.33s10.3,9.45,14.22,10.64-2.24,2.9-2.4,4.12,16.24,7.62,16.37,8.78-2.54,4.09.6,5.08,9.78,3.47,9.87,4.31-1,1-.4,2.65c.69,2.84,27.94,19.55,35,23.4C378.89,226.16,320,121.65,304.53,63.6c-.38,2.61,3.51,19.09,2.31,20.24S302.32,80.2,303.6,84.34Z"/></g></g><g id="Group_181" data-name="Group 181"><g id="Group_170" data-name="Group 170"><path id="Path_9428" data-name="Path 9428" class="cls-1" d="M365.32,255c1.74-1.24.37,2,.78,2.47s8.19-4.21,8.7-3.8.64,2.55,2.07,1.61,4.66-2.72,5-2.43,0,.8.81,1.16c1.32.6,22.1-4.56,22.1-4.56s-18.86-10.14-20.29-9.87c-.85.15-.68.71-1.07.91s-3.09-2.34-4.25-3.6-1.8.79-2.4,1.06-7-6.22-7.49-5.83,0,3.82-1.36,2.2-7.43-5-7.65-4.65,1.07,2.68.15,2.34-.49-.06-.49-.06-7.21-4.17-7.81-3.72S352.26,231,351,230s-7.32-2.48-8-2.27,0,1.26-1.24,2-7.89-1.35-8.48-1.07,1.44,3-1,2.33-8-.85-8.26-.3.55,1.55-.23,1.83-6.3-1.24-8-1-.09,1.91-1,2.16-5.52-.65-8.4-.68c-2.21,0,.14,1.16-.33,2s-9.71.39-11,.75c1.18.66,9.75,2.23,10,3.16s-2.65,1.47-.47,1.74,8.27,1.48,9.1,2-1.1,1.71.44,2.35,7.27.54,8,1-.38,1.21-.23,1.82,5.55,1.82,8.08,1.76-.12,2.07.39,2.5,7.47,0,8.48,1.06.09,1.86.71,2.24,6.84.41,8.32-.22.23,1.36.7,1.94,8.48-1.67,8.48-1.67-.49.17.49.06-.84,1.8-.72,2.23S363.58,256.27,365.32,255Z"/></g><g id="Group_180" data-name="Group 180"><path id="Path_10354" data-name="Path 10354" class="cls-2" d="M365.32,255c1.74-1.24.37,2,.78,2.46s8.19-4.2,8.7-3.8.64,2.56,2.07,1.62,4.66-2.72,5-2.44,0,.8.81,1.16c1.32.61,22.1-4.55,22.1-4.55L295,235.71c1.18.67,9.75,2.23,10,3.16s-2.66,1.47-.47,1.74,8.27,1.48,9.1,2-1.1,1.71.44,2.35,7.27.55,8,1-.38,1.21-.23,1.83,5.55,1.81,8.08,1.75-.13,2.07.39,2.5,7.47.05,8.48,1.07.09,1.86.71,2.23,6.83.42,8.32-.22.23,1.37.7,1.94,8.48-1.67,8.48-1.67-.49.17.49.07-.84,1.79-.72,2.22S363.58,256.27,365.32,255Z"/></g></g><g id="Group_202" data-name="Group 202"><g id="Group_191" data-name="Group 191"><path id="Path_11280" data-name="Path 11280" class="cls-2" d="M444.24,255c-1.73-1.24-.36,2-.77,2.47s-8.19-4.21-8.7-3.8-.65,2.55-2.07,1.61-4.67-2.72-5-2.43,0,.8-.81,1.16c-1.32.6-22.1-4.56-22.1-4.56s18.86-10.14,20.28-9.87c.85.15.69.71,1.08.91s3.09-2.34,4.25-3.6,1.8.79,2.4,1.06,7-6.22,7.49-5.83,0,3.82,1.36,2.2,7.42-5,7.65-4.65-1.07,2.68-.15,2.34.49-.06.49-.06,7.21-4.17,7.8-3.72-.13,2.68,1.16,1.71,7.32-2.48,8-2.27,0,1.26,1.24,2,7.89-1.35,8.48-1.07-1.44,3,1,2.33,8-.85,8.26-.3-.55,1.55.23,1.83,6.3-1.24,8-1,.08,1.91,1,2.16,5.51-.65,8.4-.68c2.21,0-.14,1.16.33,2s9.71.39,11,.75c-1.18.66-9.75,2.23-10,3.16s2.65,1.47.46,1.74-8.26,1.48-9.09,2,1.1,1.71-.45,2.35-7.26.54-7.95,1,.37,1.21.23,1.82-5.56,1.82-8.08,1.76.12,2.07-.39,2.5-7.47,0-8.48,1.06-.09,1.86-.71,2.24-6.84.41-8.33-.22-.22,1.36-.69,1.94-8.49-1.67-8.49-1.67.49.17-.49.06.84,1.8.73,2.23S446,256.27,444.24,255Z"/></g><g id="Group_201" data-name="Group 201"><path id="Path_12206" data-name="Path 12206" class="cls-1" d="M444.24,255c-1.73-1.24-.36,2-.77,2.46s-8.19-4.2-8.7-3.8-.65,2.56-2.07,1.62-4.67-2.72-5-2.44,0,.8-.81,1.16c-1.32.61-22.1-4.55-22.1-4.55l109.74-13.78c-1.17.67-9.74,2.23-10,3.16s2.66,1.47.47,1.74-8.26,1.48-9.09,2,1.1,1.71-.45,2.35-7.27.55-8,1,.38,1.21.23,1.83-5.55,1.81-8.08,1.75.13,2.07-.38,2.5-7.48.05-8.49,1.07-.08,1.86-.7,2.23-6.84.42-8.33-.22-.23,1.37-.7,1.94-8.48-1.67-8.48-1.67.49.17-.49.07.84,1.79.72,2.22S446,256.27,444.24,255Z"/></g></g><g id="Group_231" data-name="Group 231"><g id="Group_214" data-name="Group 214"><path id="Path_13132" data-name="Path 13132" class="cls-2" d="M506,84.34c-1.24,4.15-4.39,15.88-4.39,17.73s3.72-.53,3.39,2.75-5.68,13.3-5.63,14.87,2.26.43,3.08,1.23-2.47,11.39-5.14,15.68,3.3,1.76,3.44,3.06-7.64,13-7.27,15.63,2.7,2,2.57,3.47-7,12.07-9.64,13.83,1.72,1.82,2,3.24-11.15,11.1-12.35,12c.18-.1.36-.14-.62.93-1.33,1.46,3.56.66,4,1.33s-10.3,9.45-14.23,10.64,2.25,2.9,2.41,4.12-16.24,7.62-16.37,8.78,2.53,4.09-.6,5.08-9.78,3.47-9.87,4.31,1,1,.39,2.65c-.68,2.84-27.93,19.55-35,23.4a5.72,5.72,0,0,1-1.66.77c.63,0,14.08-38.19,15.61-39.81,1.3-1,1.83,0,2.59-.33s.91-7.16.66-10.28,3.29-1.53,4.41-2.05.06-17.17,1.09-17.41,5.28,4.46,4.65.61,1.44-16.31,2.19-16.19,2.62,4.51,3.17,2.8.45-.79.45-.79,1.92-15.05,3.11-15.46,3.8,3,3.72.08,3.9-13.53,4.87-14.39,1.91,1.24,4.24.07,5.67-13.57,6.62-14.24,3.25,5.11,4.52.59,6-13.6,7.15-13.62,2,2.27,3.07,1.23,3.6-11.48,5.34-14.09,3.15,1.43,4.33.08,3.54-9.92,5.73-15c1.69-3.85,1.77,1.11,3.5.92s8.06-16.85,9.48-19c.38,2.61-3.51,19.09-2.31,20.24S507.24,80.2,506,84.34Z"/></g><g id="Group_230" data-name="Group 230"><path id="Path_14322" data-name="Path 14322" class="cls-1" d="M506,84.34c-1.24,4.15-4.38,15.88-4.38,17.73s3.71-.53,3.38,2.75-5.67,13.3-5.62,14.87,2.25.43,3.08,1.23-2.47,11.39-5.15,15.68,3.31,1.76,3.45,3.06-7.64,13-7.27,15.63,2.7,2,2.57,3.47-7,12.07-9.64,13.83,1.72,1.82,2,3.24-11.15,11.1-12.34,12c.18-.1.36-.14-.62.93-1.33,1.46,3.56.66,4,1.33s-10.3,9.45-14.23,10.64,2.24,2.9,2.41,4.12-16.25,7.62-16.37,8.78,2.53,4.09-.6,5.08-9.78,3.47-9.87,4.31,1,1,.39,2.65c-.68,2.84-27.94,19.55-35,23.4C430.68,226.16,489.61,121.65,505,63.6c.38,2.61-3.51,19.09-2.3,20.24S507.24,80.2,506,84.34Z"/></g></g></g></g><g id="Group_242" data-name="Group 242"><path id="Path_16040" data-name="Path 16040" class="cls-4" d="M425.56,400.16H384a5.27,5.27,0,0,1-5.21-4.46l-4.92-31.4a5.28,5.28,0,0,1,4.41-6,5.54,5.54,0,0,1,.81-.07h51.38a5.29,5.29,0,0,1,5.29,5.29,4.43,4.43,0,0,1-.07.81l-4.91,31.4A5.27,5.27,0,0,1,425.56,400.16Z"/></g></g><g id="Group_299" data-name="Group 299"><g id="Group_244" data-name="Group 244"><path id="Path_16834" data-name="Path 16834" class="cls-5" d="M46.2,374.57a96.19,96.19,0,0,1-.81,12.92H58.77a53.35,53.35,0,0,1,0-13.48Z"/><path id="Path_16835" data-name="Path 16835" class="cls-4" d="M45.29,386.37c-2.45,5-5.8,11.19-3.16,12.82s34.7.92,37.24,0-17-11.6-20.14-12.82C54.14,385.15,45.29,386.37,45.29,386.37Z"/></g><g id="Group_245" data-name="Group 245"><path id="Path_16836" data-name="Path 16836" class="cls-5" d="M86.19,372.91a96.19,96.19,0,0,1-.81,12.92H98.76a53.35,53.35,0,0,1,0-13.48Z"/><path id="Path_16837" data-name="Path 16837" class="cls-4" d="M85.28,384.46c-2.44,5-5.8,11.2-3.16,12.83s34.7.91,37.25,0-17-11.61-20.15-12.83C94.13,383.24,85.28,384.46,85.28,384.46Z"/></g><g id="Group_258" data-name="Group 258"><path id="Path_16838" data-name="Path 16838" class="cls-6" d="M38.87,239.54c-1,15.67,2.65,67.56,2.45,76.93s.83,29.3,0,36.63-1.16,21.16-1.16,21.16c8.47,2.85,26.38,1.63,26.38,1.63,1-8.34,4.68-73.67,5.7-86.9s3.26-49.45,3.26-49.45Z"/></g><g id="Group_272" data-name="Group 272"><path id="Path_18028" data-name="Path 18028" class="cls-1" d="M47,241.17s24.62,54.13,26.66,68,1.83,65.94,1.83,65.94c9.16,1.42,25.23,1.07,25.23,1.07,2.45-17.15,2.24-54.34,1.43-68.31s-14-64.64-14-64.64Z"/></g><path id="Path_19350" data-name="Path 19350" class="cls-7" d="M128.14,195.78l-15.95-3.58,40.53-19.1,21.6,3.3Z"/><path id="Path_19351" data-name="Path 19351" class="cls-5" d="M122.49,193.65c3,.64,3.48.53,4.28,0s2.06-3.54,4.12-4.69a37.26,37.26,0,0,1,8.52-3.25c2.34-.46,4.89-1.58,5.85,0S144,191.2,143,192.42s-9.56,6.77-12.31,6.67a8,8,0,0,0-5.54,2.22c-.92.78-1.31,1.95-2.44.78S121.6,194.82,122.49,193.65Z"/><path id="Path_19352" data-name="Path 19352" class="cls-8" d="M93.21,173.09c1.84,3.26,7.93,18.06,9.51,19.44s20,0,20,0c-1.22,5.39-.41,9.26.81,9.26a3.19,3.19,0,0,0,2-.77c-1.12,3.92-2.54,3.48-8.75,3.63s-21.57.5-23.61-.47-6.56-8-6.56-8l-3.12-19.59Z"/><path id="Path_19353" data-name="Path 19353" class="cls-9" d="M77.7,141.54c6.48,7.46,17,29.21,17.55,31.58a27.78,27.78,0,0,1-10.6,4.65Z"/><path id="Path_19354" data-name="Path 19354" class="cls-5" d="M80.29,96.82c.15,3.67-1.22,6.21-.71,8.5s3.92,5.5,3.56,7.07-3.2,4-3.2,4-8.7,9.92-7.84,12.82,2.34,11.4,2.34,11.4-11.6,1.68-14.6-4.42l-3.2-13.89,6.56-28Z"/><g id="Group_282" data-name="Group 282"><path id="Path_19355" data-name="Path 19355" class="cls-4" d="M61.06,114.68c-1.94,2.65-3.26,8.65-4.58,8.85S49,110.31,49,110.31C43.76,103.38,44,92.19,48,90c1.12-4,10.38-3.25,10.38-3.25,2-3.87,5.62-1.53,5.62-1.53,11.07-6.61,18.26-1.42,20.62,3.56S83.75,99,80.19,98.2a22.45,22.45,0,0,1-9.67-.82c-8.55,1.73-6.31,10.79-4.88,13.43s4.37,9.06,6.51,9.57,2.9.81,4.22-.76,0-2.6,1.48-3.46,3.2-1.33,4,0,.76,3.1.71,6.66a8.39,8.39,0,0,1-5.09,7.89c-3.26,1.47-9.26-.77-11.19-4.63S61.06,114.68,61.06,114.68Z"/></g><g id="Group_298" data-name="Group 298"><path id="Path_20281" data-name="Path 20281" class="cls-10" d="M59.23,134.57c-10.08,4.89-12.82,12.52-15.27,26.1s-2.59,35.72-4.73,49S36,244.83,36,244.83c19.39,3,45.49,2.09,56,.56-.76-18.16-4.58-52.81-5.19-66.09s-5.19-31.9-10.38-39.84C68.39,141.44,59.23,134.57,59.23,134.57Z"/></g><path id="Path_21867" data-name="Path 21867" class="cls-7" d="M133.92,179.54l.39,2.34-2-1.23-13-19.14,1.64-1.11Z"/><path id="Path_21868" data-name="Path 21868" class="cls-5" d="M109.15,180.68c4.95-3.83,7.93-7.46,12.73-7.59s12.37,3.46,14.05,4.68-2.52,3.66-3.51,4.35-5.27,1.07-7.79.76-5.19,4.2-7.17,4.5-5.8-.07-6.57.46Z"/><path id="Path_21869" data-name="Path 21869" class="cls-11" d="M53.28,190.23c1.6,5.1,3.36,13,8.32,14.25S93.27,199,99,196.24s14.8-6,14.8-6a69.54,69.54,0,0,1-5.57-12c-7.33.77-31.29,9.32-33.5,9.24s-3.13-4.27-3.13-4.27Z"/><path id="Path_21870" data-name="Path 21870" class="cls-12" d="M48.44,145c-3.9,3.87-3.76,15-1.93,26.2a204.09,204.09,0,0,0,5.19,22.39c7.12-4.68,22.18-9.77,22.18-9.77C72,176.65,65.74,150.6,63,147.34S53.93,139.51,48.44,145Z"/></g><g id="Group_366" data-name="Group 366"><g id="Group_354" data-name="Group 354"><path id="Path_27024" data-name="Path 27024" class="cls-13" d="M262.13,259.75a7.19,7.19,0,0,1-.19-10.14l11.91-12.38a7.17,7.17,0,1,1,10.34,10h0l-11.91,12.38a7.18,7.18,0,0,1-10.14.21Z"/><path id="Path_27025" data-name="Path 27025" class="cls-14" d="M278.24,253.37l-10.34-10,6-6.19a7.17,7.17,0,1,1,10.34,10Z"/></g><g id="Group_355" data-name="Group 355"><path id="Path_27026" data-name="Path 27026" class="cls-13" d="M293.42,237a7.18,7.18,0,0,1,2.35,9.87l-9,14.64a7.18,7.18,0,0,1-12.22-7.53l9-14.63A7.16,7.16,0,0,1,293.4,237Z"/><path id="Path_27027" data-name="Path 27027" class="cls-1" d="M279,246.63l12.22,7.52-4.5,7.32a7.18,7.18,0,0,1-12.22-7.53h0Z"/></g><g id="Group_356" data-name="Group 356"><path id="Path_27028" data-name="Path 27028" class="cls-13" d="M215.76,250.55a7.18,7.18,0,0,1,4.14-9.26l16-6.13a7.17,7.17,0,1,1,5.45,13.27l-.33.13-16,6.13a7.17,7.17,0,0,1-9.26-4.12Z"/><path id="Path_27029" data-name="Path 27029" class="cls-14" d="M233,251.63l-5.12-13.41,8-3.06a7.17,7.17,0,0,1,5.45,13.27l-.33.13Z"/></g><g id="Group_357" data-name="Group 357"><path id="Path_27030" data-name="Path 27030" class="cls-15" d="M189.49,239.05a7.19,7.19,0,0,1,9.5-3.56l15.65,7.11a7.17,7.17,0,0,1-5.94,13.06l-15.65-7.11a7.16,7.16,0,0,1-3.56-9.49Z"/><path id="Path_27031" data-name="Path 27031" class="cls-14" d="M200.88,252.11,206.82,239l7.82,3.56a7.17,7.17,0,0,1-5.94,13.06Z"/></g><g id="Group_358" data-name="Group 358"><path id="Path_27032" data-name="Path 27032" class="cls-1" d="M215.52,234.65a7.18,7.18,0,0,1-.48,10.13l-12.72,11.56a7.17,7.17,0,0,1-9.65-10.62l12.72-11.56a7.17,7.17,0,0,1,10.12.47Z"/><path id="Path_27033" data-name="Path 27033" class="cls-16" d="M199,239.94l9.65,10.62-6.36,5.78a7.17,7.17,0,0,1-9.65-10.62Z"/></g><g id="Group_359" data-name="Group 359"><path id="Path_27034" data-name="Path 27034" class="cls-2" d="M241.14,232.57a7.17,7.17,0,0,1,8.59,5.4l3.82,16.75a7.17,7.17,0,0,1-14,3.19h0l-3.82-16.76a7.17,7.17,0,0,1,5.39-8.58Z"/><path id="Path_27035" data-name="Path 27035" class="cls-16" d="M237.65,249.54l14-3.19,1.91,8.38a7.17,7.17,0,0,1-14,3.18Z"/></g><g id="Group_360" data-name="Group 360"><path id="Path_27036" data-name="Path 27036" class="cls-17" d="M209.46,226.31a7.18,7.18,0,0,1,9.81,2.6l8.64,14.85A7.18,7.18,0,0,1,215.5,251l-8.64-14.85a7.17,7.17,0,0,1,2.58-9.8Z"/><path id="Path_27037" data-name="Path 27037" class="cls-4" d="M211.18,243.54l12.41-7.21,4.32,7.43A7.18,7.18,0,0,1,215.5,251Z"/></g><g id="Group_361" data-name="Group 361"><path id="Path_27038" data-name="Path 27038" class="cls-18" d="M228.88,249.42a7.19,7.19,0,0,1,7-7.33l17.18-.38a7.17,7.17,0,1,1,.45,14.34h-.14l-17.18.37a7.16,7.16,0,0,1-7.32-7Z"/><path id="Path_27039" data-name="Path 27039" class="cls-19" d="M244.8,256.24l-.31-14.34,8.59-.19a7.17,7.17,0,0,1,.44,14.34h-.13Z"/></g><g id="Group_362" data-name="Group 362"><path id="Path_27040" data-name="Path 27040" class="cls-1" d="M260.15,256.72a7.2,7.2,0,0,1-5.88-8.28l2.87-16.94a7.18,7.18,0,1,1,14.15,2.39l-2.87,16.94a7.16,7.16,0,0,1-8.25,5.89Z"/><path id="Path_27041" data-name="Path 27041" class="cls-20" d="M269.86,242.36,255.7,240l1.44-8.47a7.18,7.18,0,0,1,14.17,2.27.5.5,0,0,0,0,.12Z"/></g><g id="Group_363" data-name="Group 363"><path id="Path_27042" data-name="Path 27042" class="cls-17" d="M284.86,260.48a7.18,7.18,0,0,1-.19-10.14L296.58,238A7.18,7.18,0,0,1,307,247.87l0,0L295,260.29a7.18,7.18,0,0,1-10.14.21Z"/><path id="Path_27043" data-name="Path 27043" class="cls-21" d="M301,254.1l-10.34-10,6-6.19a7.18,7.18,0,0,1,10.34,10Z"/></g><g id="Group_364" data-name="Group 364"><path id="Path_27044" data-name="Path 27044" class="cls-15" d="M275.14,229.62a7.18,7.18,0,0,1,9.73,2.88l8.2,15.1a7.18,7.18,0,1,1-12.61,6.85h0l-8.2-15.1a7.16,7.16,0,0,1,2.87-9.72Z"/><path id="Path_27045" data-name="Path 27045" class="cls-16" d="M276.36,246.9,289,240.05l4.1,7.55a7.18,7.18,0,0,1-12.61,6.85Z"/></g><g id="Group_365" data-name="Group 365"><path id="Path_27046" data-name="Path 27046" class="cls-17" d="M202.72,260.13a7.19,7.19,0,0,1-10.08,1.21l-13.51-10.61a7.17,7.17,0,1,1,8.7-11.41l.16.12,13.51,10.62a7.16,7.16,0,0,1,1.23,10.06Z"/><path id="Path_27047" data-name="Path 27047" class="cls-1" d="M194.74,244.75,185.88,256l-6.76-5.3a7.18,7.18,0,1,1,8.71-11.41l.15.12Z"/></g></g><g id="Group_399" data-name="Group 399"><path id="Rectangle_28" data-name="Rectangle 28" class="cls-4" d="M161.5,255.18H323.77V357.6a20,20,0,0,1-20,20H181.5a20,20,0,0,1-20-20V255.18Z"/></g><g id="Group_454" data-name="Group 454"><g id="Group_423" data-name="Group 423"><path id="Rectangle_30" data-name="Rectangle 30" class="cls-22" d="M143.74,377.84H362.12a8.23,8.23,0,0,1,8.23,8.23h0v14.1H135.51v-14.1a8.22,8.22,0,0,1,8.23-8.23Z"/></g><g id="Group_453" data-name="Group 453"><path id="Rectangle_32" data-name="Rectangle 32" class="cls-23" d="M8.19,400.16h442a8.2,8.2,0,0,1,8.19,8.2H0a8.2,8.2,0,0,1,8.19-8.2Z"/></g></g><path id="Path_27136" data-name="Path 27136" class="cls-1" d="M264.81,305H240.14v19.4h-20a1,1,0,0,1-1-1h0V310.59a1,1,0,0,1,1-1h14.72V294.79a1,1,0,0,1,1-1h12.77a1,1,0,0,1,1,1h0v6.12h4.58v-6.12a5.61,5.61,0,0,0-5.61-5.61h-12.7a5.61,5.61,0,0,0-5.61,5.61V305H220.11a5.61,5.61,0,0,0-5.61,5.61v12.76a5.61,5.61,0,0,0,5.61,5.61h24.67V309.5h20.09a1,1,0,0,1,1,1h0v12.76a1,1,0,0,1-1,1H249.7V339a1,1,0,0,1-1,1H235.91a1,1,0,0,1-1-1h0V332.8H230.3V339a5.61,5.61,0,0,0,5.61,5.61h12.76a5.61,5.61,0,0,0,5.61-5.61V328.9h10.59a5.61,5.61,0,0,0,5.61-5.61v-12.7A5.71,5.71,0,0,0,264.81,305Z"/></g></svg>