<svg id="Layer_1" data-name="Layer 1" xmlns="http://www.w3.org/2000/svg" viewBox="0 0 370.91 385.43"><defs><style>.cls-1,.cls-4,.cls-5,.cls-6{fill:none;stroke:#00d1a9;}.cls-1{stroke-linecap:round;stroke-width:4px;}.cls-2{fill:#46eccd;}.cls-3{fill:#00d1a9;}.cls-4{stroke-miterlimit:10;}.cls-4,.cls-6{stroke-width:2px;}.cls-5{stroke-width:1.5px;}.cls-7{fill:#4d4d4d;}.cls-8{fill:#6b6b6b;}</style></defs><g id="Component_1_1" data-name="Component 1 1"><g id="Group_616" data-name="Group 616"><g id="Group_615" data-name="Group 615"><path id="Path_27376" data-name="Path 27376" class="cls-1" d="M185.46,264.57V368.85"/><g id="Group_606" data-name="Group 606"><path id="Path_27351" data-name="Path 27351" class="cls-2" d="M185.46,276.28,0,284s17.28,3.78,25.39,4.63S23.8,290.84,28,292s16.14-3.37,14.14-.6-4.59,6.42,2.28,4,12.9-3.8,10.48-.44-.74,3.39,6.75,1,1.74,1.51,2.16,3.17,8.41-1.41,12.43-2.28.6,1.74-.12,3.27,6.43-.18,9.62-2,3,.08,1.59,2.15,5.59.81,9.53-2.09,3.49-.94,2.7,1.21,6-.25,10-2.71,4.27-1.24,3.42,1.45,6.39-1.15,10.33-4,4.2-1,3,.75,6.06-1.33,10.19-3.8,4.52-1.05,4.07.91c-.4,1.74,4.79-1.7,9.34-4.71s2.8,1,2.4,1.9,1.88.74,7.29-2.92,6.53-2.11,4.75-.18S166.58,287,185.46,276.28Z"/><path id="Path_27352" data-name="Path 27352" class="cls-3" d="M185.46,276.28,0,284s16.9-5.21,24.91-6.74-1.8-2,2.24-3.53,16.36,2,14.13-.59-5.1-6,2-4.19,13.17,2.72,10.48-.44-1-3.31,6.64-1.51,1.61-1.65,1.89-3.34,8.5.7,12.58,1.24.46-1.79-.4-3.25,6.43-.36,9.76,1.18,3-.34,1.4-2.28,5.51-1.27,9.67,1.29,3.56.64,2.59-1.43,6-.25,10.23,1.86,4.36.88,3.28-1.72,6.46.61,10.63,3.08,4.26.62,3-1,6.15.82,10.47,2.93,4.6.67,4-1.24c-.54-1.7,4.9,1.3,9.69,3.92s2.71-1.21,2.23-2.1,1.81-.9,7.51,2.3,6.68,1.55,4.75-.22S165.75,267.18,185.46,276.28Z"/><line id="Line_4" data-name="Line 4" class="cls-4" x1="0.04" y1="284.03" x2="185.46" y2="276.28"/></g><g id="Group_607" data-name="Group 607"><path id="Path_27353" data-name="Path 27353" class="cls-2" d="M185.46,276.28l-76.72,71.21s8.8-4.7,12.58-7.3.1,1.53,2.3.51,5.7-7.36,5.85-5.44.38,4.43,2.45.89,4.14-6.36,4.34-4,.92,1.73,3.24-2.06,1.3,0,2.09.57,3.09-3.68,4.5-5.53.9.52,1.14,1.45,2.7-2.43,3.4-4.38,1.32-1.06,1.48.34,2.7-1.7,3.32-4.38,1.15-1.68,1.6-.47,2.48-2.3,3.31-4.84,1.38-2.09,2-.63,2.32-2.83,3-5.48,1.44-1.95,1.58-.79,2.11-2.79,3-5.36,1.55-2.11,2.08-1.1,1.43-2.48,2.28-5.44,1.56-.6,1.72-.06S177,293.59,178,290s2-3.3,2-1.82S181.28,287.79,185.46,276.28Z"/><path id="Path_27354" data-name="Path 27354" class="cls-3" d="M185.46,276.28l-76.72,71.21s5.34-8.42,8.22-12-1.52-.22-.34-2.34,7.76-5.13,5.85-5.43-4.39-.71-.7-2.51,6.65-3.65,4.34-4-1.65-1.05,2.3-3.08.08-1.3-.41-2.13,3.9-2.81,5.85-4.08-.46-.93-1.36-1.24,2.63-2.51,4.62-3.07,1.16-1.24-.24-1.49,1.9-2.56,4.63-3,1.76-1,.58-1.56,2.48-2.3,5.07-2.94,2.19-1.22.78-1.95,3-2.1,5.69-2.56,2-1.3.9-1.52,2.94-1.9,5.57-2.57,2.21-1.4,1.25-2,2.58-1.25,5.59-1.87.72-1.51.19-1.72.45-1.05,4.07-1.76,3.43-1.78,2-1.83S173.67,279.59,185.46,276.28Z"/><path id="Path_27374" data-name="Path 27374" class="cls-5" d="M108.74,347.49l76.72-71.21"/></g><g id="Group_608" data-name="Group 608"><path id="Path_27355" data-name="Path 27355" class="cls-3" d="M185.46,276.28l76.72,71.21s-8.8-4.7-12.59-7.3-.1,1.53-2.3.51-5.69-7.36-5.85-5.44-.38,4.43-2.45.89-4.14-6.36-4.34-4-.92,1.73-3.24-2.06-1.3,0-2.09.57-3.09-3.68-4.5-5.53-.9.52-1.14,1.45-2.69-2.43-3.4-4.38-1.32-1.06-1.47.34-2.7-1.7-3.33-4.38-1.15-1.68-1.6-.47-2.48-2.3-3.31-4.84-1.38-2.09-2-.63-2.32-2.83-3-5.48-1.44-1.95-1.57-.79-2.11-2.79-3-5.36-1.56-2.11-2.09-1.1-1.43-2.48-2.27-5.44-1.56-.6-1.73-.06-1.08-.37-2.06-3.92-2-3.3-2-1.82S189.63,287.79,185.46,276.28Z"/><path id="Path_27356" data-name="Path 27356" class="cls-3" d="M185.46,276.28l76.72,71.21s-5.35-8.42-8.23-12,1.53-.22.34-2.34-7.76-5.13-5.85-5.43,4.39-.71.7-2.51-6.65-3.65-4.34-4,1.65-1.05-2.3-3.08-.08-1.3.42-2.13-3.9-2.81-5.86-4.08.46-.93,1.36-1.24-2.62-2.51-4.61-3.07-1.16-1.24.23-1.49-1.9-2.56-4.62-3-1.77-1-.59-1.56-2.48-2.3-5.07-2.94-2.19-1.22-.78-1.95-3-2.1-5.69-2.56-2-1.3-.9-1.52-2.93-1.9-5.56-2.57-2.22-1.4-1.26-2-2.58-1.25-5.59-1.87-.72-1.51-.19-1.72-.45-1.05-4.06-1.76-3.44-1.78-2-1.83S197.24,279.59,185.46,276.28Z"/><path id="Path_27375" data-name="Path 27375" class="cls-5" d="M262.18,347.49l-47.35-43.95-29.37-27.26"/></g><g id="Group_609" data-name="Group 609"><path id="Path_27357" data-name="Path 27357" class="cls-2" d="M185.46,276.28,370.87,284s-17.28,3.78-25.38,4.63,1.62,2.19-2.53,3.34-16.14-3.37-14.13-.59,4.58,6.41-2.29,4-12.9-3.8-10.48-.44.74,3.38-6.75.95-1.74,1.52-2.16,3.17-8.41-1.41-12.43-2.28-.6,1.74.13,3.27-6.44-.18-9.63-2-3,.09-1.59,2.16-5.59.81-9.53-2.09-3.49-.94-2.7,1.21-6-.25-10-2.72-4.27-1.23-3.41,1.45-6.4-1.15-10.34-4-4.2-1-3,.75-6.06-1.33-10.19-3.8-4.52-1.05-4.07.91c.4,1.74-4.79-1.7-9.34-4.71s-2.8,1-2.4,1.9-1.88.75-7.29-2.92-6.53-2.11-4.75-.18S204.33,287,185.46,276.28Z"/><path id="Path_27358" data-name="Path 27358" class="cls-3" d="M185.46,276.28,370.87,284S354,278.83,346,277.3s1.81-2-2.23-3.54-16.37,2-14.14-.59,5.1-6-1.94-4.18-13.18,2.71-10.49-.44,1-3.31-6.64-1.51-1.61-1.66-1.89-3.34-8.5.7-12.58,1.23-.45-1.78.4-3.24-6.43-.36-9.75,1.18-3-.34-1.41-2.28-5.51-1.28-9.67,1.29-3.56.64-2.59-1.44-6-.25-10.22,1.87-4.36.88-3.28-1.72-6.47.61-10.63,3.08-4.26.62-3-1-6.15.83-10.47,2.94-4.59.67-4-1.25c.54-1.7-4.91,1.3-9.7,3.92s-2.71-1.2-2.23-2.1-1.81-.9-7.5,2.3-6.69,1.56-4.76-.21S205.16,267.18,185.46,276.28Z"/><line id="Line_7" data-name="Line 7" class="cls-4" x1="370.87" y1="284.03" x2="185.46" y2="276.28"/></g><g id="Group_610" data-name="Group 610"><path id="Path_27359" data-name="Path 27359" class="cls-3" d="M185.46,276.28,367.68,164.52s-19.5,5.88-28.14,9.57.42-3.11-4.4-1.94-14.36,12.43-13.9,8.52,1-9-4.55-2.75-10.84,11.06-10.3,6.32-1.15-3.82-7.32,2.82-2.6-.55-3.95-2-7.68,6.13-11.23,9.27-1.59-1.41-1.71-3.36-6.37,3.79-8.57,7.4-3.07,1.6-2.81-1.28-6.08,2.32-8.41,7.45-3,2.9-3.4.29-5.88,3.61-8.57,8.36-3.6,3.64-4.25.46-5.79,4.74-8.17,9.78-3.68,3.33-3.48.94-5.34,4.74-8.12,9.54-4,3.59-4.61,1.36c-.58-2-3.86,4.4-6.75,10s-3.36.59-3.47-.57-2.32.31-5.7,7-5.39,5.78-4.69,2.85S198.44,254.92,185.46,276.28Z"/><path id="Path_27360" data-name="Path 27360" class="cls-2" d="M185.46,276.28,367.68,164.52s-14.08,14.71-21.29,20.74,3,1-.26,4.81-17.6,7.15-13.9,8.52,8.5,3.18.39,5.3-14.78,4.65-10.3,6.32,2.88,2.76-5.84,5.24-.69,2.57,0,4.43-8.95,4.06-13.36,5.81.54,2.05,2.23,3-6.27,4-10.48,4.28-2.82,2-.14,3.09-4.82,4.37-10.45,4.12-3.94,1.35-1.8,2.9-5.89,3.61-11.34,3.85-4.88,1.56-2.33,3.58-6.85,3-12.43,2.85-4.63,1.77-2.41,2.67-6.64,2.62-12.18,2.92-5,1.9-3.31,3.49c1.5,1.4-5.66,1.45-12,1.49s-2,2.73-1.07,3.36-1.32,1.92-8.84,1.89-7.6,2.18-4.67,2.89S210.39,274.39,185.46,276.28Z"/><line id="Line_8" data-name="Line 8" class="cls-4" x1="367.68" y1="164.52" x2="185.46" y2="276.28"/></g><g id="Group_611" data-name="Group 611"><path id="Path_27361" data-name="Path 27361" class="cls-2" d="M185.46,276.28,3.23,164.52s19.5,5.88,28.14,9.57S31,171,35.78,172.15s14.35,12.43,13.89,8.52-1-9,4.55-2.75,10.85,11.06,10.3,6.32,1.15-3.82,7.32,2.82,2.6-.55,4-2,7.67,6.13,11.23,9.27,1.58-1.41,1.7-3.36,6.37,3.79,8.57,7.4,3.07,1.6,2.81-1.28,6.08,2.32,8.42,7.45,3,2.9,3.39.29,5.89,3.61,8.57,8.36,3.6,3.64,4.25.46,5.79,4.74,8.18,9.78,3.68,3.33,3.47.94,5.35,4.74,8.12,9.54,4,3.59,4.61,1.36c.58-2,3.86,4.4,6.75,10s3.36.59,3.48-.57,2.31.31,5.7,7,5.39,5.78,4.68,2.85S172.47,254.92,185.46,276.28Z"/><path id="Path_27362" data-name="Path 27362" class="cls-3" d="M185.46,276.28,3.23,164.52s14.09,14.71,21.29,20.74-3,1,.27,4.81,17.59,7.15,13.9,8.52-8.5,3.18-.39,5.3,14.77,4.65,10.3,6.32-2.89,2.76,5.83,5.24.69,2.57,0,4.43,8.95,4.06,13.35,5.81-.54,2.05-2.22,3,6.26,4,10.48,4.28,2.81,2,.13,3.09,4.83,4.37,10.46,4.12,3.94,1.35,1.8,2.9,5.88,3.61,11.33,3.85,4.88,1.56,2.34,3.58,6.85,3,12.42,2.85,4.63,1.77,2.41,2.67,6.65,2.62,12.18,2.92,5,1.9,3.31,3.49c-1.5,1.4,5.67,1.45,12,1.49s2,2.73,1.06,3.36,1.32,1.92,8.85,1.89,7.6,2.18,4.66,2.89S160.52,274.39,185.46,276.28Z"/><path id="Path_27373" data-name="Path 27373" class="cls-6" d="M3.23,164.52,185.46,276.28"/></g><g id="Group_612" data-name="Group 612"><path id="Path_27363" data-name="Path 27363" class="cls-2" d="M185.46,276.28,62.36,58.33S79,75.43,85.73,84.12s1.35-3.43,5.62.51,7.63,20.89,9.38,16.62,4.09-9.82,6.22-.24,4.83,17.49,7,12.33,3.35-3.26,5.9,7,3,.91,5.17.21,4.37,10.65,6.23,15.88,2.43-.55,3.66-2.48,4.37,7.5,4.57,12.44,2.24,3.38,3.6.29,4.9,5.83,4.38,12.41,1.41,4.67,3.31,2.23,4,7,4,13.43,1.63,5.77,4.09,2.88,3.23,8.14,2.82,14.66,1.87,5.5,3,2.94,2.78,7.88,2.9,14.37,2,5.93,3.95,4c1.71-1.69,1.45,6.69,1.24,14.05s3.11,2.51,3.88,1.39,2.2,1.63,1.85,10.43,2.23,9,3.17,5.58S184.3,247,185.46,276.28Z"/><path id="Path_27364" data-name="Path 27364" class="cls-3" d="M185.46,276.28,62.36,58.33s6.06,23.07,10,33.33-3.62-.62-2.46,5.08,14,17.32,9.39,16.61-10.52-1.57-3.41,5.2,12.49,13.16,7,12.32-4.52,1.19,3,8.69-.75,3-2.48,4.55,6.85,9.24,10.37,13.53-1.72,1.79-4,1.85,4.16,7.62,8.3,10.34,1.74,3.66-1.62,3.24,2.46,7.21,8.36,10.16,3.27,3.61.2,4,4,7,9.42,10.39,4.11,4.37.36,5,5.3,7,11.1,10,3.74,4.44,1,4.1,5.32,6.45,10.82,9.9,4,4.79,1.41,5.45c-2.34.59,5,4.7,11.39,8.32s.54,4-.82,4,.26,2.72,8,7,6.53,6.55,3.13,5.6S161,260.18,185.46,276.28Z"/><path id="Path_27372" data-name="Path 27372" class="cls-6" d="M62.36,58.32l123.1,218"/></g><g id="Group_613" data-name="Group 613"><path id="Path_27365" data-name="Path 27365" class="cls-3" d="M185.46,276.28,308.56,58.33s-16.63,17.1-23.38,25.79-1.34-3.43-5.62.51-7.63,20.89-9.38,16.62-4.09-9.82-6.22-.24-4.82,17.49-7,12.33-3.35-3.26-5.89,7-3,.91-5.18.21-4.37,10.65-6.23,15.88-2.42-.55-3.66-2.48-4.37,7.5-4.57,12.44-2.23,3.38-3.6.29-4.9,5.83-4.38,12.41-1.41,4.67-3.31,2.23-4,7-4,13.43-1.63,5.77-4.09,2.88-3.23,8.14-2.82,14.66-1.87,5.5-3,2.94-2.78,7.88-2.9,14.37-2,5.93-3.94,4c-1.71-1.69-1.46,6.69-1.24,14.05s-3.11,2.51-3.89,1.39-2.2,1.63-1.84,10.43-2.24,9-3.18,5.58S186.61,247,185.46,276.28Z"/><path id="Path_27366" data-name="Path 27366" class="cls-2" d="M185.46,276.28,308.56,58.33s-6.07,23.07-10,33.33,3.62-.62,2.46,5.08-13.95,17.32-9.39,16.61,10.52-1.57,3.41,5.2-12.48,13.16-7,12.32,4.52,1.19-3,8.69.75,3,2.49,4.55-6.86,9.24-10.38,13.53,1.72,1.79,4,1.85-4.17,7.62-8.3,10.34-1.74,3.66,1.61,3.24-2.46,7.21-8.36,10.16-3.27,3.61-.2,4-4,7-9.42,10.39-4.11,4.37-.36,5-5.3,7-11.1,10-3.74,4.44-.95,4.1-5.32,6.45-10.82,9.9-4,4.79-1.4,5.45c2.33.59-5,4.7-11.39,8.32s-.55,4,.81,4-.26,2.72-8,7-6.54,6.55-3.14,5.6S209.91,260.18,185.46,276.28Z"/><path id="Path_27371" data-name="Path 27371" class="cls-6" d="M308.56,58.32l-123.1,218"/></g><g id="Group_614" data-name="Group 614"><path id="Path_27367" data-name="Path 27367" class="cls-3" d="M185.46,276.28V0s-6.7,25.46-8.47,37.47-3.15-2.56-5.12,3.54,4,24.22,0,21.07-9.25-7.22-6.1,3.15,4.86,19.42,0,15.62-5-1.32-1.84,10-2.36,2.5-4.85,3,1.57,12.6,2.62,18.64-2.62.79-4.85-.4-.14,9.59,2.36,14.44-.32,4.46-3.31,2.23-1.55,8.27,2.52,14.31,1.18,5.25-2,3.94,0,8.92,3.41,15.09,1.58,6.43-2.36,5,1.31,9.58,5.25,15.62,1.18,6.3-1.31,4.46,1.61,9.09,5,15.39,1.28,6.79-1.61,6c-2.56-.7,2.23,7.22,6.43,14.18s-1.62,4.1-3,3.44-1.22,2.76,3.89,11,2.73,9.84,0,7.09S170.69,247.54,185.46,276.28Z"/><path id="Path_27368" data-name="Path 27368" class="cls-2" d="M185.46,276.28V0s6.69,25.46,8.46,37.47S197.07,34.91,199,41s-4,24.21,0,21.06,9.25-7.22,6.1,3.15-4.86,19.43,0,15.62,5-1.31,1.84,10,2.36,2.49,4.85,3-1.57,12.6-2.62,18.64,2.62.79,4.86-.39.13,9.58-2.37,14.44S212,131,215,128.76s1.55,8.27-2.52,14.3-1.18,5.25,2,3.94,0,8.93-3.41,15.09-1.58,6.44,2.36,5-1.31,9.58-5.25,15.62-1.18,6.3,1.31,4.46-1.6,9.09-5,15.39-1.28,6.8,1.61,6c2.56-.7-2.23,7.22-6.43,14.17s1.62,4.1,3,3.45,1.23,2.75-3.89,11-2.73,9.85,0,7.09S200.22,247.54,185.46,276.28Z"/><line id="Line_12" data-name="Line 12" class="cls-4" x1="185.46" x2="185.46" y2="276.28"/></g></g><path id="Path_27369" data-name="Path 27369" class="cls-7" d="M185.46,365.44A446.38,446.38,0,0,0,75,379.85a2.84,2.84,0,0,0,.73,5.58H295.21a2.84,2.84,0,0,0,.73-5.58A446.31,446.31,0,0,0,185.46,365.44Z"/><path id="Path_27370" data-name="Path 27370" class="cls-8" d="M149.31,385.43h145.9a2.84,2.84,0,0,0,.72-5.58,446.24,446.24,0,0,0-110.48-14.41s32.77,3.61,41.45,10S149.31,385.43,149.31,385.43Z"/></g></g></svg>