<svg id="Layer_1" data-name="Layer 1" xmlns="http://www.w3.org/2000/svg" viewBox="0 0 29.51 29.53"><defs><style>.cls-1{fill:#00d1a9;}</style></defs><g id="contact-form"><path id="Path_27324" data-name="Path 27324" class="cls-1" d="M28.3,6.55A2.43,2.43,0,0,0,25,7.43l-2.15,3.73V8.07a.59.59,0,0,0-.55-.6.58.58,0,0,0-.6.56v5.13l-6.34,11a.57.57,0,0,0-.07.22l-.44,4H1.15V1.15H21.69V2.88a.58.58,0,1,0,1.15.05V.58A.58.58,0,0,0,22.26,0H.58A.58.58,0,0,0,0,.58V29a.58.58,0,0,0,.58.58H22.26a.58.58,0,0,0,.58-.58v-8.1l6.34-11A2.43,2.43,0,0,0,28.3,6.55Zm-12,18.81,1.66,1-1.91,1.4Zm5.36,3H17.13l2.26-1.65a.69.69,0,0,0,.16-.18l2.14-3.7Zm-2.85-2.9-2.2-1.27L25.08,9.58l2.2,1.27Zm9.34-16.2-.33.57-2.2-1.27L26,8a1.27,1.27,0,0,1,1.74-.46A1.25,1.25,0,0,1,28.18,9.28Z"/><path id="Path_27325" data-name="Path 27325" class="cls-1" d="M22.26,4.9a.58.58,0,0,0,0,1.16.58.58,0,0,0,.41-1A.57.57,0,0,0,22.26,4.9Z"/><path id="Path_27326" data-name="Path 27326" class="cls-1" d="M17.24,6.11H5.59a.58.58,0,0,0,0,1.16H17.24a.58.58,0,0,0,0-1.16Z"/><path id="Path_27327" data-name="Path 27327" class="cls-1" d="M17.24,9.34H5.59a.58.58,0,0,0,0,1.16H17.24a.58.58,0,0,0,0-1.16Z"/><path id="Path_27328" data-name="Path 27328" class="cls-1" d="M17.25,12.57H13a.58.58,0,0,0,0,1.16h4.28a.58.58,0,0,0,0-1.16Z"/><path id="Path_27329" data-name="Path 27329" class="cls-1" d="M17.82,16.38a.58.58,0,0,0-.58-.58H5.59a.58.58,0,0,0,0,1.16H17.24A.58.58,0,0,0,17.82,16.38Z"/><path id="Path_27330" data-name="Path 27330" class="cls-1" d="M15.34,19.61a.58.58,0,0,0-.58-.58h-3.6a.59.59,0,0,0-.58.58.58.58,0,0,0,.58.58h3.6A.58.58,0,0,0,15.34,19.61Z"/><path id="Path_27331" data-name="Path 27331" class="cls-1" d="M5.59,23.42h5.08a.58.58,0,0,0,0-1.16H5.59a.58.58,0,0,0-.57.58.57.57,0,0,0,.57.58Z"/><path id="Path_27332" data-name="Path 27332" class="cls-1" d="M5.59,13.73H9.44a.58.58,0,0,0,0-1.16H5.59a.58.58,0,0,0,0,1.16Z"/><path id="Path_27333" data-name="Path 27333" class="cls-1" d="M5.59,20.19h3a.58.58,0,1,0,0-1.16h-3a.58.58,0,0,0-.57.58.57.57,0,0,0,.57.58Z"/></g></svg>