<svg id="Layer_1" data-name="Layer 1" xmlns="http://www.w3.org/2000/svg" viewBox="0 0 49.76 39.24"><defs><style>.cls-1{fill:#04c29e;}</style></defs><g id="coming-soon"><g id="Group_566" data-name="Group 566"><path id="Path_27309" data-name="Path 27309" class="cls-1" d="M43.29,0H6.47A6.47,6.47,0,0,0,0,6.47v26.3a6.47,6.47,0,0,0,6.47,6.47h14a1,1,0,0,0,0-1.94h-14a4.55,4.55,0,0,1-4.53-4.53V6.47A4.53,4.53,0,0,1,6.47,2H43.29a4.52,4.52,0,0,1,4.52,4.52v26.3a4.52,4.52,0,0,1-4.52,4.53h-14a1,1,0,0,0,0,1.94h14a6.47,6.47,0,0,0,6.47-6.47V6.47A6.47,6.47,0,0,0,43.29,0Z"/><path id="Path_27310" data-name="Path 27310" class="cls-1" d="M6.93,10.14A1.18,1.18,0,0,1,8.07,11a1,1,0,0,0,1.87-.56,3.14,3.14,0,0,0-6.14.88v3.42a3.13,3.13,0,0,0,6.13.9,1,1,0,1,0-1.86-.56,1.19,1.19,0,0,1-1.14.83,1.17,1.17,0,0,1-1.18-1.17V11.3A1.16,1.16,0,0,1,6.93,10.14Z"/><path id="Path_27311" data-name="Path 27311" class="cls-1" d="M17.3,14.49v-3a3.39,3.39,0,0,0-3.38-3.39h0a3.4,3.4,0,0,0-3.39,3.39v3a3.38,3.38,0,0,0,3.39,3.38h0A3.38,3.38,0,0,0,17.3,14.49Zm-1.94,0a1.45,1.45,0,0,1-1.44,1.44h0a1.44,1.44,0,0,1-1.43-1.44v-3a1.43,1.43,0,0,1,1.43-1.44h0a1.44,1.44,0,0,1,1.44,1.44Z"/><path id="Path_27312" data-name="Path 27312" class="cls-1" d="M18.68,17.82A1,1,0,0,0,19.8,17l.64-3.89,1,3.87v0a1.13,1.13,0,0,0,1.41.75,1.12,1.12,0,0,0,.76-.76v0l1-3.86.69,3.9a1,1,0,0,0,1.92-.28s0,0,0-.06L26,9.14v0A1.13,1.13,0,0,0,23.77,9V9l-1.19,4.51L21.34,9V9a1.13,1.13,0,0,0-2.2.14h0L17.88,16.7a1,1,0,0,0,.8,1.12Z"/><path id="Path_27313" data-name="Path 27313" class="cls-1" d="M29.43,17.8a1,1,0,0,0,1-1V9.2a1,1,0,1,0-1.94,0v7.63A1,1,0,0,0,29.43,17.8Z"/><path id="Path_27314" data-name="Path 27314" class="cls-1" d="M37.75,8.15a1,1,0,0,0-1,1v4.78L33.1,8.59a1,1,0,0,0-1.77.55V16.9a1,1,0,0,0,2,0V12.26l3.47,5a1.09,1.09,0,0,0,1.22.45,1.12,1.12,0,0,0,.76-1.1V9.12A1,1,0,0,0,37.75,8.15Z"/><path id="Path_27315" data-name="Path 27315" class="cls-1" d="M42.91,10.1a1.21,1.21,0,0,1,1.14.85,1,1,0,0,0,1.86-.55,3.13,3.13,0,0,0-6.13.89v3.45a3.13,3.13,0,0,0,6.13.9.86.86,0,0,0,0-.28v-1.9a1,1,0,0,0-1-1h-.9A1,1,0,0,0,44,14.43v.77a1.19,1.19,0,0,1-2.29-.46V11.29A1.19,1.19,0,0,1,42.91,10.1Z"/><path id="Path_27316" data-name="Path 27316" class="cls-1" d="M20.5,21.36h0a3.4,3.4,0,0,0-3.39,3.39V27.7a3.39,3.39,0,0,0,3.39,3.38h0a3.38,3.38,0,0,0,3.38-3.38V24.75A3.39,3.39,0,0,0,20.5,21.36Zm1.44,6.34a1.43,1.43,0,0,1-1.44,1.44h0A1.43,1.43,0,0,1,19,27.7V24.75a1.43,1.43,0,0,1,1.44-1.44h0a1.44,1.44,0,0,1,1.44,1.44Z"/><path id="Path_27317" data-name="Path 27317" class="cls-1" d="M28.76,31.08a3.38,3.38,0,0,0,3.38-3.38V24.75a3.38,3.38,0,0,0-3.38-3.38h0a3.38,3.38,0,0,0-3.38,3.38V27.7a3.38,3.38,0,0,0,3.38,3.38ZM27.29,27.7V24.75a1.44,1.44,0,0,1,1.44-1.44h0a1.43,1.43,0,0,1,1.43,1.44V27.7a1.43,1.43,0,0,1-1.43,1.43h0a1.44,1.44,0,0,1-1.44-1.43Z"/><path id="Path_27318" data-name="Path 27318" class="cls-1" d="M39,22.34v4.78L35.35,21.8a1,1,0,0,0-1.77.55v7.76a1,1,0,0,0,1.94,0h0V25.47l3.48,5a1.06,1.06,0,0,0,1.21.45,1.11,1.11,0,0,0,.76-1.1V22.34a1,1,0,1,0-1.94,0Z"/><path id="Path_27319" data-name="Path 27319" class="cls-1" d="M12.47,31.08a3.2,3.2,0,0,0,3.27-2.48c.19-1.09-.3-2.5-2.26-3.23-1-.35-1.84-.73-2.12-.85a.55.55,0,0,1-.19-.51.79.79,0,0,1,.62-.62,2.57,2.57,0,0,1,2.14.5,1,1,0,0,0,1.25-1.49,4.57,4.57,0,0,0-3.95-.87,2.74,2.74,0,0,0-2,2.21,2.46,2.46,0,0,0,1.1,2.45s1.25.57,2.45,1c.34.13,1.13.48,1,1.06a1.32,1.32,0,0,1-1.36.89,2.76,2.76,0,0,1-2-.84A1,1,0,1,0,9,29.58l0,0A4.71,4.71,0,0,0,12.47,31.08Z"/><circle id="Ellipse_14" data-name="Ellipse 14" class="cls-1" cx="24.88" cy="38.27" r="0.97"/></g></g></svg>