<svg id="Layer_1" data-name="Layer 1" xmlns="http://www.w3.org/2000/svg" viewBox="0 0 31.54 25"><defs><style>.cls-1{fill:#00d1a9;}</style></defs><g id="credit-card"><path id="Path_27348" data-name="Path 27348" class="cls-1" d="M31,2.69a2.33,2.33,0,0,0-1.61-.83L7.16,0A2.37,2.37,0,0,0,4.6,2.16l-.45,4.2H2.37A2.37,2.37,0,0,0,0,8.73v13.9A2.37,2.37,0,0,0,2.37,25H24.66A2.37,2.37,0,0,0,27,22.63V20.38l.79.06H28a2.38,2.38,0,0,0,2.36-2.17L31.54,4.42A2.38,2.38,0,0,0,31,2.69ZM2.37,7.59H24.66A1.14,1.14,0,0,1,25.8,8.73V10H1.23V8.73A1.14,1.14,0,0,1,2.37,7.59ZM1.23,11.23H25.8v2.55H1.23ZM24.66,23.77H2.37a1.14,1.14,0,0,1-1.14-1.14V15H25.8v7.62a1.14,1.14,0,0,1-1.14,1.14ZM30.31,4.32,29.15,18.18a1.13,1.13,0,0,1-1.23,1L27,19.14V8.73a2.37,2.37,0,0,0-2.37-2.37H5.39l.44-4.07h0a1.14,1.14,0,0,1,1.23-1L29.27,3.09a1.14,1.14,0,0,1,1,1.23Z"/><path id="Path_27349" data-name="Path 27349" class="cls-1" d="M23.22,16.85H17.29a.61.61,0,0,0-.62.61v3.87a.62.62,0,0,0,.62.62h5.93a.61.61,0,0,0,.61-.62V17.46A.61.61,0,0,0,23.22,16.85Zm-.62,3.86H17.9V18.08h4.7Z"/></g></svg>