<svg id="Layer_1" data-name="Layer 1" xmlns="http://www.w3.org/2000/svg" viewBox="0 0 30.91 30.91"><defs><style>.cls-1{fill:#00d1a9;}</style></defs><g id="Group_571" data-name="Group 571"><g id="Group_570" data-name="Group 570"><path id="Path_27334" data-name="Path 27334" class="cls-1" d="M30,0H6.72a.9.9,0,0,0-.9.91V12.43a9.63,9.63,0,1,0,13.24,6.84H30a.91.91,0,0,0,.91-.91h0V.91A.91.91,0,0,0,30,0ZM27.37,1.81l-9,6.7-9-6.7ZM9.63,29.1a7.83,7.83,0,1,1,7.83-7.82A7.82,7.82,0,0,1,9.63,29.1ZM29.1,17.46H18.48A9.64,9.64,0,0,0,7.63,11.85V2.78l10.19,7.58a.9.9,0,0,0,1.08,0L29.1,2.78Z"/></g></g><g id="Group_573" data-name="Group 573"><g id="Group_572" data-name="Group 572"><path id="Path_27335" data-name="Path 27335" class="cls-1" d="M13.18,20.63a.91.91,0,0,0-1.28,0L10.54,22V18.36a.91.91,0,0,0-.88-.93.89.89,0,0,0-.93.87V22L7.36,20.63a.91.91,0,0,0-1.28,0,.92.92,0,0,0,0,1.29l0,0L9,24.82a.89.89,0,0,0,1.28,0h0l2.91-2.91A1.2,1.2,0,0,0,13.18,20.63Z"/></g></g></svg>