<svg id="Layer_1" data-name="Layer 1" xmlns="http://www.w3.org/2000/svg" viewBox="0 0 31.65 31.59"><defs><style>.cls-1{fill:#00d1a9;}</style></defs><path id="Path_27336" data-name="Path 27336" class="cls-1" d="M30.7,27H19.47V25.11a.93.93,0,0,0-.93-.92H16.75V20.36H26.93a.93.93,0,0,0,.93-.92h0V4.63a.93.93,0,0,0-.93-.93H14.55L13,.51A.94.94,0,0,0,12.13,0H4.72a.93.93,0,0,0-.93.93h0V19.44a.93.93,0,0,0,.93.92H14.9v3.83H13a.93.93,0,0,0-.93.93h0V27H1A.93.93,0,1,0,.9,28.82H12.06v1.85a.93.93,0,0,0,.93.92h5.55a.93.93,0,0,0,.93-.92h0V28.82H30.7a.93.93,0,0,0,.95-.9.91.91,0,0,0-.89-1ZM5.65,1.85h5.91L13.15,5a.92.92,0,0,0,.83.51H26v13H5.65Zm12,27.89h-3.7V26h3.7Z"/><path id="Path_27337" data-name="Path 27337" class="cls-1" d="M12.81,8.76a.93.93,0,0,0-1.31-.07l0,0L9.62,10.57a.93.93,0,0,0,1.27,1.35l0,0,.27-.27v3.26a.93.93,0,0,0,1.85,0V11.62l.27.26a.92.92,0,1,0,1.34-1.27l0,0Z"/><path id="Path_27338" data-name="Path 27338" class="cls-1" d="M20.73,12.37l-.27.27V9.38a.93.93,0,0,0-1.86,0v3.25l-.26-.26a.93.93,0,0,0-1.31,0,.92.92,0,0,0,0,1.27l1.81,1.82a.94.94,0,0,0,1.32.07l0,0L22,13.68a.93.93,0,0,0-1.28-1.35l0,0Z"/></svg>