<svg id="Layer_1" data-name="Layer 1" xmlns="http://www.w3.org/2000/svg" viewBox="0 0 31.44 31.45"><defs><style>.cls-1{fill:#00d1a9;}</style></defs><path id="doctor" class="cls-1" d="M28,21.17l-6.58-3.09a7.52,7.52,0,0,0,1.41-2.72A2.81,2.81,0,0,0,23.08,10V7.35a7.36,7.36,0,0,0-14.71,0V10a2.81,2.81,0,0,0,.26,5.41A7.35,7.35,0,0,0,10,18.08L3.45,21.17A6,6,0,0,0,0,26.6v4.85H31.44V26.6A6,6,0,0,0,28,21.17ZM10.21,7.36a5.52,5.52,0,1,1,11,0V9A6.35,6.35,0,0,1,18.06,6.6l-.67-1.21-.86,1.1S14.7,8.78,10.21,9.77ZM8.27,12.62a1,1,0,0,1,1-1h1a15,15,0,0,0,7-3.2A8.86,8.86,0,0,0,21.24,11v.69h1a1,1,0,1,1,0,1.93h-.92l-.13.77a5.52,5.52,0,0,1-10.87,0l-.13-.77H9.24a1,1,0,0,1-1-1ZM18,20.4,15.72,24,13.41,20.4A7.33,7.33,0,0,0,18,20.4ZM8.25,29.6a1.23,1.23,0,1,1,1.23-1.23A1.23,1.23,0,0,1,8.25,29.6Zm-6.41-3a4.17,4.17,0,0,1,2.4-3.76l3.09-1.46v4.07a3.06,3.06,0,0,0-2,3.84,1.66,1.66,0,0,0,.12.31H1.84Zm9.22,3a3.07,3.07,0,0,0-1.58-4l-.31-.12V20.52l1.62-.76,4.93,7.57,4.93-7.57,1.5.7v3.7a3.38,3.38,0,0,0-2.58,3.27V29.6Zm10.35,0V27.44a1.52,1.52,0,0,1,1.51-1.52h.29a1.52,1.52,0,0,1,1.52,1.52V29.6Zm8.19,0h-3V27.44A3.36,3.36,0,0,0,24,24.17V21.33l3.21,1.5a4.18,4.18,0,0,1,2.4,3.77Z"/></svg>