<svg id="Layer_1" data-name="Layer 1" xmlns="http://www.w3.org/2000/svg" viewBox="0 0 76.83 76.83"><defs><style>.cls-1{fill:#00d1a9;}</style></defs><path id="Path_27306" data-name="Path 27306" class="cls-1" d="M73.16,22.35l-4.09,1.89a33.61,33.61,0,0,1,3.26,14.18A34,34,0,0,1,38.42,72.33a33.28,33.28,0,0,1-19.14-6.09,6.75,6.75,0,1,0-2.9,3.46,37.76,37.76,0,0,0,22,7.13A38.48,38.48,0,0,0,76.83,38.42,38,38,0,0,0,73.16,22.35ZM14.54,65.47a2.25,2.25,0,1,1,0-3.18h0A2.25,2.25,0,0,1,14.54,65.47Z"/><path id="Path_27307" data-name="Path 27307" class="cls-1" d="M49.67,29.41V22.66h4.5v-4.5H22.66v4.5h4.5v6.75a11.23,11.23,0,0,0,4.51,9,11.23,11.23,0,0,0-4.51,9v6.75h-4.5v4.5H54.17v-4.5h-4.5V47.41a11.23,11.23,0,0,0-4.51-9A11.23,11.23,0,0,0,49.67,29.41Zm-4.5,18v6.75H31.66V47.42a6.76,6.76,0,0,1,13.51,0Zm0-18a6.75,6.75,0,1,1-13.5,0V22.66h13.5Z"/><path id="Path_27308" data-name="Path 27308" class="cls-1" d="M59.11,17.73A6.75,6.75,0,1,0,60.46,7.12,37.82,37.82,0,0,0,38.42,0,38.51,38.51,0,0,0,0,38.42,38.12,38.12,0,0,0,3.67,54.48l4.09-1.89A33.6,33.6,0,0,1,4.5,38.42,34,34,0,0,1,38.42,4.5a33.31,33.31,0,0,1,19.14,6.09A6.77,6.77,0,0,0,59.11,17.73Zm3.18-6.37a2.25,2.25,0,1,1,0,3.18h0A2.25,2.25,0,0,1,62.29,11.36Z"/></svg>