<svg id="Layer_1" data-name="Layer 1" xmlns="http://www.w3.org/2000/svg" viewBox="0 0 79.4 79.4"><defs><style>.cls-1{fill:#00d1a9;}</style></defs><path id="doctor" class="cls-1" d="M70.68,53.45l-16.61-7.8a18.7,18.7,0,0,0,3.55-6.87,7.09,7.09,0,0,0,.66-13.65V18.58a18.58,18.58,0,0,0-37.16,0v6.55a7.1,7.1,0,0,0,.66,13.66,18.6,18.6,0,0,0,3.56,6.86L8.72,53.45A15.23,15.23,0,0,0,0,67.17V79.4H79.4V67.17A15.21,15.21,0,0,0,70.68,53.45ZM25.78,18.58a13.93,13.93,0,1,1,27.85,0h0v4.21a16.12,16.12,0,0,1-8-6.12l-1.69-3.05-2.17,2.77c-.05.06-4.62,5.77-16,8.28ZM20.9,31.87a2.44,2.44,0,0,1,2.44-2.44h2.44c9.23-1.85,14.83-5.69,17.57-8.09a22.36,22.36,0,0,0,10.28,6.35v1.74h2.44a2.44,2.44,0,0,1,0,4.88H53.76l-.34,1.93a13.92,13.92,0,0,1-27.44,0l-.33-1.93H23.33A2.45,2.45,0,0,1,20.9,31.87ZM45.55,51.51l-5.85,9-5.85-9a18.58,18.58,0,0,0,11.7,0ZM20.83,74.75a3.1,3.1,0,1,1,3.1-3.1h0A3.1,3.1,0,0,1,20.83,74.75ZM4.65,67.17a10.56,10.56,0,0,1,6-9.51L18.51,54V64.25A7.75,7.75,0,0,0,13.43,74c.09.26.19.53.3.78H4.65Zm23.29,7.58a7.76,7.76,0,0,0-4-10.21,6.58,6.58,0,0,0-.78-.29V51.81l4.09-1.92L39.7,69,52.15,49.89l3.78,1.78V61a8.5,8.5,0,0,0-6.52,8.26v5.47Zm26.12,0V69.28a3.83,3.83,0,0,1,3.84-3.83h.72a3.83,3.83,0,0,1,3.84,3.83v5.47Zm20.69,0H67.11V69.28A8.48,8.48,0,0,0,60.59,61V53.85l8.11,3.81a10.53,10.53,0,0,1,6,9.51Z"/></svg>