<svg id="Layer_1" data-name="Layer 1" xmlns="http://www.w3.org/2000/svg" viewBox="0 0 184.6 45.84"><defs><style>.cls-1{fill:#00d1a9;}</style></defs><g id="Drugly_Logo_Green" data-name="Drugly Logo Green"><path id="Path_1" data-name="Path 1" class="cls-1" d="M41.59,13.06H21.19v16H4.64a.86.86,0,0,1-.86-.84h0V17.69a.86.86,0,0,1,.85-.85H16.8V4.64a.86.86,0,0,1,.84-.86H28.2a.85.85,0,0,1,.85.85h0V9.7h3.79V4.64A4.65,4.65,0,0,0,28.2,0H17.7a4.65,4.65,0,0,0-4.64,4.64v8.42H4.64A4.64,4.64,0,0,0,0,17.69V28.24a4.64,4.64,0,0,0,4.64,4.64H25V16.8h16.6a.85.85,0,0,1,.85.84h0V28.2a.83.83,0,0,1-.84.85H29.1V41.21a.85.85,0,0,1-.84.85H17.69a.85.85,0,0,1-.85-.84h0V36.05H13.06v5.16a4.63,4.63,0,0,0,4.63,4.63H28.24a4.63,4.63,0,0,0,4.64-4.63V32.83h8.75a4.64,4.64,0,0,0,4.64-4.63V17.7A4.72,4.72,0,0,0,41.59,13.06Z"/><g id="Group_4" data-name="Group 4"><g id="Group_1" data-name="Group 1"><path id="Path_2" data-name="Path 2" class="cls-1" d="M96.32,20.39c0-4.35-2.41-7.1-6.25-7.1H77.92V32.5h3.36V17.08H90c1.89,0,2.93,1.18,2.93,3.36,0,1.61-.52,3.5-2.93,3.5H82.89v3.4h6.34l4.21,5.2h4.78l-5.16-5.86C95.14,25.59,96.32,23.32,96.32,20.39Z"/><path id="Path_3" data-name="Path 3" class="cls-1" d="M151.82,13.29h-3.41V32.5H163V28.76H151.82Z"/><path id="Path_4" data-name="Path 4" class="cls-1" d="M180.3,13.29,174,21.76l-6.29-8.37,0-.1h-4.54l9,12V32.5h3.41V25.26l9.08-12Z"/></g><path id="Path_5" data-name="Path 5" class="cls-1" d="M64.29,13.29H55.78v3.79h8.47c2.84,0,4.92,2.46,4.92,5.82s-2.08,5.86-4.92,5.86H55.83v3.79h8.51c4.73,0,8.33-4.21,8.33-9.79S69.21,13.29,64.29,13.29Z"/><g id="Group_2" data-name="Group 2"><path id="Path_6" data-name="Path 6" class="cls-1" d="M110,29.05c-3.6-.19-4.92-1.56-4.92-5V13.29h-3.5V24c0,5.82,2.6,8.51,8.42,8.75Z"/><path id="Path_7" data-name="Path 7" class="cls-1" d="M116.57,13.29V24c0,3.36-1.23,4.77-4.63,5v3.74c5.48-.33,8-3.08,8-8.75V13.29Z"/></g><g id="Group_3" data-name="Group 3"><path id="Path_8" data-name="Path 8" class="cls-1" d="M139.61,28.76h-6.43c-2.7,0-4.64-2.46-4.64-5.86s1.94-5.82,4.64-5.82h8.7V13.29h-8.7c-4.59,0-7.85,3.88-7.85,9.42s3.35,9.79,7.85,9.79h9.7V26.45h-3.26Z"/><path id="Path_9" data-name="Path 9" class="cls-1" d="M133.93,21.1v3.26h8.95V21.1Z"/></g></g></g></svg>