<svg id="Layer_1" data-name="Layer 1" xmlns="http://www.w3.org/2000/svg" viewBox="0 0 220.98 54.88"><defs><style>.cls-1{fill:#00d1a9;}</style></defs><g id="Drugly_Logo_Green" data-name="Drugly Logo Green"><path id="Path_1" data-name="Path 1" class="cls-1" d="M49.78,15.63H25.37v19.2H5.55a1,1,0,0,1-1-1h0V21.18a1,1,0,0,1,1-1H20.1V5.55a1,1,0,0,1,1-1H33.75a1,1,0,0,1,1,1h0v6.06H39.3V5.55A5.56,5.56,0,0,0,33.75,0H21.18a5.56,5.56,0,0,0-5.55,5.55V15.63H5.55A5.56,5.56,0,0,0,0,21.18V33.81a5.56,5.56,0,0,0,5.55,5.55H30V20.1H49.84a1,1,0,0,1,1,1h0V33.75a1,1,0,0,1-1,1h-15V49.33a1,1,0,0,1-1,1H21.18a1,1,0,0,1-1-1h0V43.15H15.63v6.18a5.57,5.57,0,0,0,5.55,5.55H33.81a5.56,5.56,0,0,0,5.55-5.55v-10H49.84a5.56,5.56,0,0,0,5.55-5.55V21.18A5.65,5.65,0,0,0,49.78,15.63Z"/><g id="Group_4" data-name="Group 4"><g id="Group_1" data-name="Group 1"><path id="Path_2" data-name="Path 2" class="cls-1" d="M115.3,24.41c0-5.21-2.88-8.5-7.47-8.5H93.27v23h4V20.45h10.47c2.27,0,3.52,1.41,3.52,4,0,1.92-.63,4.19-3.52,4.19H99.22v4.07h7.59l5,6.23h5.72l-6.17-7C113.89,30.64,115.3,27.92,115.3,24.41Z"/><path id="Path_3" data-name="Path 3" class="cls-1" d="M181.74,15.91h-4.08v23H195.1V34.43H181.74Z"/><path id="Path_4" data-name="Path 4" class="cls-1" d="M215.83,15.91l-7.59,10.14-7.53-10-.06-.12h-5.44L206,30.24v8.67h4.08V30.24L221,15.91Z"/></g><path id="Path_5" data-name="Path 5" class="cls-1" d="M77,15.91H66.77v4.53H76.91c3.4,0,5.89,2.95,5.89,7s-2.49,7-5.89,7H66.83V39H77c5.66,0,10-5,10-11.72S82.85,15.91,77,15.91Z"/><g id="Group_2" data-name="Group 2"><path id="Path_6" data-name="Path 6" class="cls-1" d="M131.62,34.77c-4.3-.22-5.89-1.87-5.89-6V15.91h-4.2v12.8c0,7,3.12,10.2,10.09,10.48Z"/><path id="Path_7" data-name="Path 7" class="cls-1" d="M139.54,15.91v12.8c0,4-1.47,5.72-5.55,6v4.48c6.57-.4,9.58-3.68,9.58-10.48V15.91Z"/></g><g id="Group_3" data-name="Group 3"><path id="Path_8" data-name="Path 8" class="cls-1" d="M167.12,34.43h-7.7c-3.23,0-5.55-2.94-5.55-7s2.32-7,5.55-7h10.42V15.91H159.42c-5.49,0-9.4,4.65-9.4,11.27s4,11.73,9.4,11.73H171V31.66h-3.91Z"/><path id="Path_9" data-name="Path 9" class="cls-1" d="M160.33,25.26v3.91H171V25.26Z"/></g></g></g></svg>