<svg id="Layer_1" data-name="Layer 1" xmlns="http://www.w3.org/2000/svg" viewBox="0 0 163.22 40.53"><defs><style>.cls-1{fill:#00d1a9;}</style></defs><g id="Drugly_Logo_Green" data-name="Drugly Logo Green"><path id="Path_1" data-name="Path 1" class="cls-1" d="M36.77,11.54h-18V25.72H4.1A.74.74,0,0,1,3.35,25h0V15.64a.75.75,0,0,1,.74-.75H14.85V4.1a.75.75,0,0,1,.75-.75h9.33a.75.75,0,0,1,.75.74h0V8.58H29V4.1A4.11,4.11,0,0,0,24.93,0H15.64a4.11,4.11,0,0,0-4.1,4.1v7.45H4.1A4.1,4.1,0,0,0,0,15.65V25a4.1,4.1,0,0,0,4.1,4.1h18V14.85H36.81a.75.75,0,0,1,.75.75h0v9.33a.75.75,0,0,1-.74.75H25.72V36.43a.75.75,0,0,1-.74.76H15.64a.76.76,0,0,1-.75-.75h0V31.87H11.54v4.56a4.11,4.11,0,0,0,4.1,4.1H25a4.09,4.09,0,0,0,4.1-4.1V29h7.74a4.1,4.1,0,0,0,4.1-4.1V15.64A4.18,4.18,0,0,0,36.77,11.54Z"/><g id="Group_4" data-name="Group 4"><g id="Group_1" data-name="Group 1"><path id="Path_2" data-name="Path 2" class="cls-1" d="M85.16,18c0-3.85-2.13-6.28-5.52-6.28H68.89v17h3V15.1H79.6c1.67,0,2.59,1,2.59,3,0,1.42-.46,3.1-2.59,3.1H73.29v3h5.6l3.73,4.6h4.22L82.28,23.6C84.12,22.63,85.16,20.62,85.16,18Z"/><path id="Path_3" data-name="Path 3" class="cls-1" d="M134.23,11.75h-3v17H144.1v-3.3h-9.87Z"/><path id="Path_4" data-name="Path 4" class="cls-1" d="M159.41,11.75l-5.6,7.49-5.57-7.4,0-.08h-4l8,10.58v6.4h3v-6.4l8-10.59Z"/></g><path id="Path_5" data-name="Path 5" class="cls-1" d="M56.85,11.75H49.32V15.1H56.8c2.51,0,4.35,2.18,4.35,5.15s-1.84,5.18-4.35,5.18H49.36v3.35h7.53c4.18,0,7.36-3.72,7.36-8.66S61.2,11.75,56.85,11.75Z"/><g id="Group_2" data-name="Group 2"><path id="Path_6" data-name="Path 6" class="cls-1" d="M97.21,25.68c-3.18-.16-4.35-1.38-4.35-4.43v-9.5h-3.1v9.46c0,5.14,2.3,7.53,7.45,7.74Z"/><path id="Path_7" data-name="Path 7" class="cls-1" d="M103.07,11.75v9.46c0,3-1.09,4.22-4.1,4.43v3.3c4.85-.29,7.07-2.72,7.07-7.74V11.75Z"/></g><g id="Group_3" data-name="Group 3"><path id="Path_8" data-name="Path 8" class="cls-1" d="M123.44,25.43h-5.69c-2.38,0-4.1-2.17-4.1-5.18s1.71-5.15,4.1-5.15h7.7V11.75h-7.7c-4.06,0-6.94,3.43-6.94,8.33s3,8.66,6.94,8.66h8.57V23.38h-2.88Z"/><path id="Path_9" data-name="Path 9" class="cls-1" d="M118.42,18.66v2.88h7.91V18.66Z"/></g></g></g></svg>