<svg id="Layer_1" data-name="Layer 1" xmlns="http://www.w3.org/2000/svg" viewBox="0 0 54 54"><defs><style>.cls-1{fill:#fff;}</style></defs><g id="cookie"><path id="Path_27383" data-name="Path 27383" class="cls-1" d="M46.22,8A26.83,26.83,0,0,0,27.38,0a1.58,1.58,0,0,0-1.57,1.27,6.56,6.56,0,0,1-6,5.26,1.59,1.59,0,0,0-1.47,1.69,1.88,1.88,0,0,0,.06.31,8.32,8.32,0,0,1-1.12,6.6A8.26,8.26,0,0,1,11.6,19a1.58,1.58,0,0,0-1.34,1.75,6.34,6.34,0,0,1,0,.76A6.55,6.55,0,0,1,3.73,28a6.47,6.47,0,0,1-1.64-.21A1.58,1.58,0,0,0,.16,29a1.45,1.45,0,0,0,0,.55A27,27,0,1,0,46.22,8ZM43.85,43.86A23.84,23.84,0,0,1,3.53,31.2h.21a9.73,9.73,0,0,0,9.72-9.4,11.51,11.51,0,0,0,6.52-5,11.62,11.62,0,0,0,1.81-7.41,9.77,9.77,0,0,0,6.76-6.2,23.83,23.83,0,0,1,15.3,40.63Z"/><path id="Path_27384" data-name="Path 27384" class="cls-1" d="M18.63,28.55A5.49,5.49,0,1,0,24.12,34h0A5.5,5.5,0,0,0,18.63,28.55Zm0,7.81A2.33,2.33,0,1,1,21,34h0A2.32,2.32,0,0,1,18.63,36.36Z"/><path id="Path_27385" data-name="Path 27385" class="cls-1" d="M31.83,19.29A5.79,5.79,0,1,0,26,13.5,5.79,5.79,0,0,0,31.83,19.29Zm0-8.42A2.63,2.63,0,1,1,29.2,13.5,2.63,2.63,0,0,1,31.83,10.87Z"/><path id="Path_27386" data-name="Path 27386" class="cls-1" d="M34.6,32.91a5.31,5.31,0,1,0,5.31,5.31A5.31,5.31,0,0,0,34.6,32.91Zm0,7.46a2.15,2.15,0,1,1,2.14-2.15A2.15,2.15,0,0,1,34.6,40.37Z"/><path id="Path_27387" data-name="Path 27387" class="cls-1" d="M47.33,24.76A5.31,5.31,0,1,0,42,30.07,5.31,5.31,0,0,0,47.33,24.76ZM42,26.9a2.14,2.14,0,1,1,2.15-2.14A2.14,2.14,0,0,1,42,26.9Z"/><path id="Path_27388" data-name="Path 27388" class="cls-1" d="M40.47,14.77a1.58,1.58,0,1,0,1.24-1.86,1.4,1.4,0,0,0-.29.09A1.6,1.6,0,0,0,40.47,14.77Z"/><path id="Path_27389" data-name="Path 27389" class="cls-1" d="M46.89,34.19a1.58,1.58,0,1,0-1.25,1.86,1.32,1.32,0,0,0,.3-.09A1.6,1.6,0,0,0,46.89,34.19Z"/><path id="Path_27390" data-name="Path 27390" class="cls-1" d="M20.17,23a1.59,1.59,0,1,0,1.25-1.86,1.32,1.32,0,0,0-.3.09A1.59,1.59,0,0,0,20.17,23Z"/><path id="Path_27391" data-name="Path 27391" class="cls-1" d="M26.44,44.7a1.58,1.58,0,1,0-1.24,1.86,1.4,1.4,0,0,0,.29-.09A1.59,1.59,0,0,0,26.44,44.7Z"/><path id="Path_27392" data-name="Path 27392" class="cls-1" d="M33.35,23.46a1.58,1.58,0,1,0-1.06,2,1.48,1.48,0,0,0,.29-.12A1.6,1.6,0,0,0,33.35,23.46Z"/><path id="Path_27393" data-name="Path 27393" class="cls-1" d="M29.44,31.21a1.58,1.58,0,1,0-2.19-.44,1.12,1.12,0,0,0,.19.24A1.6,1.6,0,0,0,29.44,31.21Z"/><path id="Path_27394" data-name="Path 27394" class="cls-1" d="M9.52,34.19a1.58,1.58,0,1,0-1.24,1.86,1.71,1.71,0,0,0,.3-.09A1.59,1.59,0,0,0,9.52,34.19Z"/><path id="Path_27395" data-name="Path 27395" class="cls-1" d="M9.55,11A5.49,5.49,0,1,0,4.07,5.49h0A5.49,5.49,0,0,0,9.55,11Zm0-7.81A2.33,2.33,0,1,1,7.23,5.49h0A2.33,2.33,0,0,1,9.55,3.16Z"/><path id="Path_27396" data-name="Path 27396" class="cls-1" d="M.18,17.85a1.62,1.62,0,0,0,1.63.82A1.58,1.58,0,1,0,.57,15.88a1.61,1.61,0,0,0-.39,2Z"/></g></svg>