<svg id="Layer_1" data-name="Layer 1" xmlns="http://www.w3.org/2000/svg" viewBox="0 0 26.1 25.47"><defs><style>.cls-1,.cls-2{fill:none;}.cls-2{stroke:#fff;}.cls-3{fill:#fff;}</style></defs><g id="Group_583" data-name="Group 583"><g id="Ellipse_11" data-name="Ellipse 11"><ellipse class="cls-1" cx="13.05" cy="12.74" rx="13.05" ry="12.74"/><ellipse class="cls-2" cx="13.05" cy="12.74" rx="12.55" ry="12.24"/></g><path class="cls-3" d="M10.47,9.91H8.53a.16.16,0,0,0-.16.15V16.3a.16.16,0,0,0,.16.16h1.94a.16.16,0,0,0,.15-.16V10.06A.15.15,0,0,0,10.47,9.91Z"/><path class="cls-3" d="M9.5,6.81a1.28,1.28,0,0,0,0,2.56,1.29,1.29,0,0,0,1.28-1.28h0A1.29,1.29,0,0,0,9.5,6.81Z"/><path class="cls-3" d="M15.4,9.75a2.28,2.28,0,0,0-1.7.72v-.4a.16.16,0,0,0-.16-.16H11.68a.15.15,0,0,0-.15.16V16.3a.15.15,0,0,0,.15.16h1.94a.16.16,0,0,0,.15-.16V13.21c0-1,.29-1.44,1-1.44s.85.65.85,1.5v3a.16.16,0,0,0,.16.16h1.94a.16.16,0,0,0,.15-.16V12.88C17.88,11.33,17.59,9.75,15.4,9.75Z"/></g></svg>