<svg id="Layer_1" data-name="Layer 1" xmlns="http://www.w3.org/2000/svg" viewBox="0 0 26.1 25.47"><defs><style>.cls-1,.cls-2{fill:none;}.cls-2{stroke:#fff;}.cls-3{fill:#fff;}</style></defs><g id="Group_585" data-name="Group 585"><g id="Group_61" data-name="Group 61"><g id="Ellipse_11" data-name="Ellipse 11"><ellipse class="cls-1" cx="13.05" cy="12.74" rx="13.05" ry="12.74"/><ellipse class="cls-2" cx="13.05" cy="12.74" rx="12.55" ry="12.24"/></g><g id="instagram"><path id="Path_36" data-name="Path 36" class="cls-3" d="M19.72,10.52A4.7,4.7,0,0,0,19.42,9a3.35,3.35,0,0,0-1.9-1.9,4.76,4.76,0,0,0-1.58-.3c-.7,0-.92,0-2.68,0s-2,0-2.68,0A4.76,4.76,0,0,0,9,7a3.33,3.33,0,0,0-1.9,1.9,4.76,4.76,0,0,0-.3,1.58c0,.7,0,.91,0,2.68s0,2,0,2.68a4.76,4.76,0,0,0,.3,1.58A3.35,3.35,0,0,0,9,19.36a5.27,5.27,0,0,0,1.58.3c.69,0,.91,0,2.67,0s2,0,2.68,0a5,5,0,0,0,1.58-.3,3.35,3.35,0,0,0,1.9-1.9,4.76,4.76,0,0,0,.3-1.58c0-.69,0-.91,0-2.68s0-2,0-2.68Zm-1.17,5.3A3.81,3.81,0,0,1,18.33,17a2.12,2.12,0,0,1-1.24,1.23,3.55,3.55,0,0,1-1.2.23c-.69,0-.9,0-2.63,0s-1.94,0-2.62,0a3.61,3.61,0,0,1-1.21-.23A2.15,2.15,0,0,1,8.2,17,3.49,3.49,0,0,1,8,15.83c0-.69,0-.89,0-2.63s0-1.94,0-2.62A3.59,3.59,0,0,1,8.2,9.37a1.92,1.92,0,0,1,.49-.74,2,2,0,0,1,.74-.49,3.59,3.59,0,0,1,1.21-.22c.68,0,.89,0,2.62,0s2,0,2.63,0a3.49,3.49,0,0,1,1.2.22,2.08,2.08,0,0,1,.75.49,2,2,0,0,1,.48.74,3.61,3.61,0,0,1,.23,1.21c0,.68,0,.89,0,2.62s0,1.94,0,2.63Z"/><path id="Path_37" data-name="Path 37" class="cls-3" d="M13.26,9.76A3.44,3.44,0,1,0,16.7,13.2,3.44,3.44,0,0,0,13.26,9.76Zm0,5.67a2.23,2.23,0,1,1,2.23-2.23A2.23,2.23,0,0,1,13.26,15.43Z"/><path id="Path_38" data-name="Path 38" class="cls-3" d="M17.5,9.72A.76.76,0,1,1,16.74,9h0A.76.76,0,0,1,17.5,9.72Z"/></g></g></g></svg>