<svg id="Layer_1" data-name="Layer 1" xmlns="http://www.w3.org/2000/svg" viewBox="0 0 73 73.03"><defs><style>.cls-1{fill:#fff;}</style></defs><g id="price-tag"><path id="Path_27344" data-name="Path 27344" class="cls-1" d="M29,49.22,39.11,19a2.15,2.15,0,0,0-1.32-2.72,2.13,2.13,0,0,0-2.72,1.32l0,.05L25,47.87a2.13,2.13,0,1,0,4,1.4l0-.05Z"/><path id="Path_27345" data-name="Path 27345" class="cls-1" d="M44.13,39.84a6.42,6.42,0,1,0-6.41-6.42h0A6.43,6.43,0,0,0,44.13,39.84Zm0-8.56A2.14,2.14,0,1,1,42,33.42a2.14,2.14,0,0,1,2.14-2.14Z"/><path id="Path_27346" data-name="Path 27346" class="cls-1" d="M19.94,27a6.42,6.42,0,1,0,6.41,6.42A6.41,6.41,0,0,0,19.94,27Zm0,8.56a2.14,2.14,0,1,1,2.14-2.14,2.14,2.14,0,0,1-2.14,2.14Z"/><path id="Path_27347" data-name="Path 27347" class="cls-1" d="M72.57,26.55,65.11,16.6l.3-2a2.18,2.18,0,0,0-.6-1.82L60.26,8.22,64.8,3.68a2.14,2.14,0,0,0-3-3.08l0,.05L57.24,5.19,52.7.65a2.17,2.17,0,0,0-1.81-.6l-21.17,3a2.18,2.18,0,0,0-1.21.6L2.29,29.89A7.86,7.86,0,0,0,2.29,41L24.47,63.16A7.89,7.89,0,0,0,26,64.32v.87A7.85,7.85,0,0,0,33.79,73H65.16A7.85,7.85,0,0,0,73,65.19V27.83a2.13,2.13,0,0,0-.43-1.29ZM5.32,38a3.57,3.57,0,0,1,0-5L31,7.21l19.4-2.78,3.78,3.79-3,3L49.68,9.73a2.14,2.14,0,0,0-3,3L52.7,18.8a2.14,2.14,0,1,0,3.1-2.94.3.3,0,0,0-.08-.08l-1.51-1.51,3-3L61,15,58.25,34.43,32.54,60.14a3.57,3.57,0,0,1-5,0Zm63.4,27.23a3.57,3.57,0,0,1-3.57,3.56H33.79a3.57,3.57,0,0,1-3.55-3.3,7.78,7.78,0,0,0,5.32-2.29L61.78,37a2.21,2.21,0,0,0,.6-1.21l1.87-13.15,4.47,5.95Z"/></g></svg>